<svg xmlns="http://www.w3.org/2000/svg" width="581" height="136" fill="#4880ff" xmlns:v="https://vecta.io/nano"><path d="M31.619 109.363c-6.062 0-11.438-1.495-16.126-4.486S7.126 97.602 4.459 92.025C1.812 86.427.498 79.809.498 72.18c0-7.73 1.314-14.368 3.961-19.925 2.668-5.547 6.345-9.821 11.034-12.812s10.064-4.486 16.126-4.486c4.547 0 8.73.95 12.529 2.829 3.819 1.859 6.75 4.304 8.77 7.316V17.416c0-8.669 4.294-13.014 12.893-13.014 4.143 0 7.325 1.122 9.538 3.355 2.233 2.213 3.355 5.436 3.355 9.66v78.651c0 8.68-4.264 13.015-12.772 13.015-7.629 0-11.822-3.608-12.569-10.832-1.94 3.375-4.87 6.062-8.771 8.083-3.91 2.021-8.235 3.031-12.974 3.031zm8.245-18.955c3.88 0 7.073-1.435 9.579-4.324 2.506-2.91 3.759-7.538 3.759-13.903 0-6.467-1.253-11.125-3.759-13.984-2.506-2.849-5.699-4.284-9.579-4.284-3.941 0-7.174 1.435-9.7 4.284-2.506 2.859-3.759 7.517-3.759 13.984 0 6.366 1.253 10.993 3.759 13.903 2.526 2.89 5.759 4.325 9.7 4.325zm66.482-65.433c-4.557 0-8.073-1.061-10.549-3.193-2.455-2.122-3.678-5.224-3.678-9.296 0-3.961 1.223-6.992 3.678-9.094C98.273 1.27 101.789.199 106.346.199c9.538 0 14.307 4.102 14.307 12.287 0 4.072-1.232 7.174-3.678 9.296-2.455 2.132-6.001 3.193-10.629 3.193zm0 84.107c-4.153 0-7.316-1.203-9.498-3.597-2.182-2.425-3.274-5.901-3.274-10.428V49.265c0-4.527 1.091-7.982 3.274-10.387 2.183-2.425 5.345-3.638 9.498-3.638 4.143 0 7.356 1.213 9.619 3.638 2.263 2.405 3.395 5.86 3.395 10.387v45.792c0 4.527-1.122 8.003-3.355 10.428-2.212 2.394-5.436 3.597-9.659 3.597zm63.276 26.349c-10.912 0-19.905-1.405-26.958-4.203-3.476-1.243-5.729-3.072-6.749-5.497-1.001-2.405-1.122-4.84-.364-7.316.778-2.455 2.152-4.344 4.122-5.658 1.991-1.293 4.335-1.455 7.033-.485 4.254 1.748 8.093 2.88 11.519 3.395 3.415.536 6.396.808 8.932.808 5.87 0 10.276-1.242 13.216-3.718 2.96-2.455 4.446-6.275 4.446-11.478V94.61c-2.021 3.476-5.073 6.224-9.134 8.245-4.042 2.021-8.387 3.031-13.015 3.031-6.385 0-11.953-1.465-16.692-4.405-4.718-2.93-8.406-7.053-11.074-12.368-2.647-5.305-3.961-11.529-3.961-18.672 0-7.164 1.314-13.398 3.961-18.713 2.668-5.305 6.356-9.427 11.074-12.367 4.739-2.93 10.307-4.405 16.692-4.405 4.709 0 9.074 1 13.095 2.991 4.012 1.97 6.932 4.638 8.771 8.002.859-7.133 5.102-10.71 12.731-10.71 8.407 0 12.61 4.304 12.61 12.893v50.117c0 12.448-3.476 21.754-10.427 27.928-6.952 6.163-16.895 9.255-29.828 9.255zm1.011-48.5c4.223 0 7.598-1.435 10.104-4.325 2.526-2.91 3.799-6.962 3.799-12.165 0-5.224-1.273-9.276-3.799-12.165-2.506-2.91-5.881-4.365-10.104-4.365-4.153 0-7.498 1.455-10.024 4.365-2.506 2.89-3.759 6.942-3.759 12.165 0 5.204 1.253 9.255 3.759 12.165 2.526 2.89 5.871 4.325 10.024 4.325zm67.029-61.956c-4.557 0-8.073-1.061-10.549-3.193-2.455-2.122-3.677-5.224-3.677-9.296 0-3.961 1.222-6.992 3.677-9.094 2.476-2.122 5.992-3.193 10.549-3.193 9.539 0 14.308 4.102 14.308 12.287 0 4.072-1.233 7.174-3.678 9.296-2.456 2.132-6.002 3.193-10.63 3.193zm0 84.107c-4.153 0-7.315-1.203-9.498-3.597-2.182-2.425-3.273-5.901-3.273-10.428V49.265c0-4.527 1.091-7.982 3.273-10.387 2.183-2.425 5.345-3.638 9.498-3.638 4.143 0 7.356 1.213 9.619 3.638 2.264 2.405 3.395 5.86 3.395 10.387v45.792c0 4.527-1.121 8.003-3.354 10.428-2.213 2.394-5.436 3.597-9.66 3.597zm55.72.28c-6.063 0-11.438-1.495-16.127-4.486s-8.366-7.275-11.033-12.852c-2.648-5.598-3.961-12.216-3.961-19.845 0-7.73 1.313-14.368 3.961-19.925 2.667-5.547 6.345-9.821 11.033-12.812s10.064-4.486 16.127-4.486c4.546 0 8.73.95 12.529 2.829 3.819 1.859 6.749 4.304 8.77 7.315V17.415c0-8.669 4.294-13.014 12.893-13.014 4.143 0 7.326 1.122 9.538 3.355 2.233 2.213 3.355 5.436 3.355 9.66v78.651c0 8.68-4.264 13.015-12.772 13.015-7.628 0-11.822-3.608-12.569-10.832-1.94 3.375-4.87 6.062-8.771 8.083-3.91 2.021-8.235 3.031-12.973 3.031zm8.245-18.955c3.88 0 7.072-1.435 9.578-4.325 2.506-2.91 3.759-7.538 3.759-13.903 0-6.467-1.253-11.125-3.759-13.984-2.506-2.849-5.698-4.284-9.578-4.284-3.941 0-7.174 1.435-9.7 4.284-2.506 2.859-3.759 7.518-3.759 13.984 0 6.366 1.253 10.993 3.759 13.903 2.526 2.89 5.759 4.325 9.7 4.325zm89.764 18.955c-7.901 0-14.792-1.495-20.693-4.486-5.881-2.991-10.458-7.275-13.742-12.853-3.294-5.598-4.931-12.216-4.931-19.845 0-7.73 1.637-14.368 4.931-19.925 3.284-5.547 7.861-9.821 13.742-12.812 5.901-2.991 12.792-4.486 20.693-4.486 7.922 0 14.813 1.495 20.694 4.486 5.9 2.991 10.467 7.265 13.701 12.812 3.233 5.557 4.85 12.196 4.85 19.925 0 7.629-1.617 14.247-4.85 19.845-3.234 5.578-7.801 9.862-13.701 12.853-5.881 2.991-12.772 4.486-20.694 4.486zm0-18.955c3.88 0 7.073-1.435 9.579-4.324 2.506-2.91 3.759-7.538 3.759-13.903 0-6.467-1.253-11.125-3.759-13.984-2.506-2.849-5.699-4.284-9.579-4.284-3.94 0-7.174 1.435-9.7 4.284-2.506 2.859-3.759 7.517-3.759 13.984 0 6.366 1.253 10.993 3.759 13.903 2.526 2.89 5.76 4.325 9.7 4.325zm64.282 18.673c-8.791 0-13.176-4.335-13.176-13.014V48.132c0-8.589 4.203-12.893 12.61-12.893 3.961 0 7.012 1.122 9.175 3.355 2.182 2.213 3.273 5.396 3.273 9.538v.445c1.637-4.173 4.295-7.457 7.962-9.862 3.658-2.425 8.013-3.678 13.055-3.759 2.799-.101 4.901.596 6.305 2.102 1.394 1.485 2.142 4.264 2.223 8.326 0 3.476-.728 6.224-2.183 8.245-1.434 2.021-4.183 3.233-8.245 3.638l-3.314.283c-5.122.485-8.841 1.92-11.155 4.284-2.324 2.344-3.476 5.84-3.476 10.468v23.765c0 8.679-4.354 13.014-13.054 13.014zm85.71.282c-7.901 0-14.792-1.495-20.693-4.486-5.881-2.991-10.458-7.275-13.742-12.853-3.294-5.598-4.93-12.216-4.93-19.845 0-7.73 1.636-14.368 4.93-19.925 3.284-5.547 7.861-9.821 13.742-12.812 5.901-2.991 12.792-4.486 20.693-4.486 7.922 0 14.813 1.495 20.694 4.486 5.901 2.991 10.468 7.265 13.701 12.812 3.233 5.557 4.85 12.196 4.85 19.925 0 7.629-1.617 14.247-4.85 19.845-3.233 5.578-7.8 9.862-13.701 12.853-5.881 2.991-12.772 4.486-20.694 4.486zm0-18.955c3.88 0 7.073-1.435 9.579-4.324 2.506-2.91 3.759-7.538 3.759-13.903 0-6.467-1.253-11.125-3.759-13.984-2.506-2.849-5.699-4.284-9.579-4.284-3.94 0-7.174 1.435-9.7 4.284-2.505 2.859-3.758 7.517-3.758 13.984 0 6.366 1.253 10.993 3.758 13.903 2.526 2.89 5.76 4.325 9.7 4.325z"/></svg>