<svg xmlns="http://www.w3.org/2000/svg" width="400" height="400" fill="#4880ff" xmlns:v="https://vecta.io/nano"><path d="M70.373 126.951c-8.958 0-15.863-2.091-20.717-6.283-4.846-4.187-7.267-10.275-7.267-18.267 0-7.808 2.421-13.808 7.267-17.999 4.854-4.187 11.758-6.283 20.717-6.283 18.842 0 28.267 8.096 28.267 24.283 0 7.992-2.429 14.08-7.283 18.267s-11.85 6.283-20.983 6.283zm0 165.917c-8.192 0-14.429-2.379-18.717-7.133-4.279-4.754-6.417-11.608-6.417-20.567v-90.233c0-8.942 2.137-15.792 6.417-20.55 4.288-4.767 10.525-7.15 18.717-7.15s14.517 2.383 18.983 7.15c4.475 4.758 6.717 11.608 6.717 20.55v90.233c0 8.959-2.192 15.813-6.567 20.567s-10.758 7.133-19.133 7.133zm124.786 51.983c-21.512 0-39.216-2.762-53.116-8.283-6.859-2.479-11.284-6.1-13.284-10.867-2-4.758-2.241-9.562-.716-14.416s4.233-8.567 8.133-11.134c3.908-2.566 8.525-2.9 13.85-1 8.375 3.434 15.942 5.671 22.7 6.717 6.767 1.042 12.621 1.567 17.567 1.567 11.62 0 20.333-2.43 26.133-7.284 5.808-4.858 8.717-12.421 8.717-22.7v-13.133c-4 6.858-10 12.283-18 16.283-7.992 3.992-16.559 5.984-25.7 5.984-12.567 0-23.517-2.9-32.85-8.7-9.325-5.809-16.6-13.95-21.834-24.417-5.233-10.475-7.85-22.758-7.85-36.85 0-14.075 2.617-26.35 7.85-36.817 5.234-10.475 12.509-18.616 21.834-24.416 9.333-5.809 20.283-8.717 32.85-8.717 9.333 0 17.95 1.95 25.85 5.85s13.654 9.183 17.266 15.85c1.721-14.088 10.1-21.133 25.134-21.133 16.566 0 24.85 8.475 24.85 25.416v98.8c0 24.554-6.859 42.925-20.567 55.117-13.7 12.187-33.308 18.283-58.817 18.283zm2-95.666c8.367 0 15.021-2.855 19.967-8.567 4.954-5.708 7.433-13.708 7.433-24 0-10.275-2.479-18.271-7.433-23.983-4.946-5.709-11.6-8.567-19.967-8.567-8.191 0-14.762 2.858-19.716 8.567-4.946 5.712-7.417 13.708-7.417 23.983 0 10.292 2.471 18.292 7.417 24 4.954 5.712 11.525 8.567 19.716 8.567zm132.197-122.234c-8.958 0-15.862-2.091-20.716-6.283-4.846-4.187-7.267-10.275-7.267-18.267 0-7.808 2.421-13.808 7.267-17.999 4.854-4.187 11.758-6.283 20.716-6.283 18.842 0 28.267 8.096 28.267 24.283 0 7.992-2.429 14.08-7.283 18.267s-11.85 6.283-20.984 6.283zm0 165.917c-8.191 0-14.429-2.379-18.716-7.133-4.279-4.754-6.417-11.608-6.417-20.567v-90.233c0-8.942 2.138-15.792 6.417-20.55 4.287-4.767 10.525-7.15 18.716-7.15s14.517 2.383 18.984 7.15c4.475 4.758 6.716 11.608 6.716 20.55v90.233c0 8.959-2.191 15.813-6.566 20.567s-10.759 7.133-19.134 7.133z"/></svg>