<svg xmlns="http://www.w3.org/2000/svg" xmlns:xlink="http://www.w3.org/1999/xlink" width="400" zoomAndPan="magnify" viewBox="0 0 300 187.499995" height="250" preserveAspectRatio="xMidYMid meet" version="1.0"><defs><g/><clipPath id="9ba5b9d515"><path d="M 234.886719 34 L 248.839844 34 L 248.839844 150 L 234.886719 150 Z M 234.886719 34 " clip-rule="nonzero"/></clipPath><clipPath id="28a039547f"><path d="M 241.78125 34 C 243.609375 34 245.363281 34.726562 246.652344 36.019531 C 247.945312 37.3125 248.671875 39.066406 248.671875 40.894531 L 248.671875 143.042969 C 248.671875 144.871094 247.945312 146.625 246.652344 147.917969 C 245.363281 149.210938 243.609375 149.9375 241.78125 149.9375 C 239.949219 149.9375 238.199219 149.210938 236.90625 147.917969 C 235.613281 146.625 234.886719 144.871094 234.886719 143.042969 L 234.886719 40.894531 C 234.886719 39.066406 235.613281 37.3125 236.90625 36.019531 C 238.199219 34.726562 239.949219 34 241.78125 34 " clip-rule="nonzero"/></clipPath></defs><g fill="#202124" fill-opacity="1"><g transform="translate(60.704743, 138.854579)"><g><path d="M 24.203125 0.8125 C 21.179688 0.8125 18.070312 0.503906 14.875 -0.109375 C 11.6875 -0.734375 8.957031 -1.613281 6.6875 -2.75 C 5.34375 -3.394531 4.398438 -4.257812 3.859375 -5.34375 C 3.316406 -6.4375 3.117188 -7.5625 3.265625 -8.71875 C 3.410156 -9.882812 3.828125 -10.925781 4.515625 -11.84375 C 5.210938 -12.757812 6.128906 -13.375 7.265625 -13.6875 C 8.410156 -14.007812 9.703125 -13.851562 11.140625 -13.21875 C 13.015625 -12.269531 15.140625 -11.5625 17.515625 -11.09375 C 19.890625 -10.625 22.117188 -10.390625 24.203125 -10.390625 C 27.460938 -10.390625 29.75 -10.820312 31.0625 -11.6875 C 32.375 -12.550781 33.03125 -13.628906 33.03125 -14.921875 C 33.03125 -16.054688 32.570312 -16.96875 31.65625 -17.65625 C 30.738281 -18.351562 29.117188 -18.953125 26.796875 -19.453125 L 18.109375 -21.3125 C 8.710938 -23.332031 4.015625 -28.253906 4.015625 -36.078125 C 4.015625 -39.492188 4.941406 -42.488281 6.796875 -45.0625 C 8.648438 -47.632812 11.234375 -49.625 14.546875 -51.03125 C 17.867188 -52.445312 21.726562 -53.15625 26.125 -53.15625 C 28.695312 -53.15625 31.304688 -52.867188 33.953125 -52.296875 C 36.609375 -51.722656 38.898438 -50.867188 40.828125 -49.734375 C 42.316406 -48.941406 43.257812 -47.863281 43.65625 -46.5 C 44.050781 -45.144531 44 -43.820312 43.5 -42.53125 C 43.007812 -41.25 42.128906 -40.3125 40.859375 -39.71875 C 39.597656 -39.125 38.003906 -39.222656 36.078125 -40.015625 C 34.585938 -40.660156 32.953125 -41.140625 31.171875 -41.453125 C 29.390625 -41.773438 27.660156 -41.9375 25.984375 -41.9375 C 23.210938 -41.9375 21.082031 -41.453125 19.59375 -40.484375 C 18.113281 -39.523438 17.375 -38.28125 17.375 -36.75 C 17.375 -35.65625 17.816406 -34.757812 18.703125 -34.0625 C 19.597656 -33.375 21.179688 -32.785156 23.453125 -32.296875 L 32.0625 -30.4375 C 41.613281 -28.40625 46.390625 -23.601562 46.390625 -16.03125 C 46.390625 -12.613281 45.472656 -9.644531 43.640625 -7.125 C 41.816406 -4.601562 39.242188 -2.648438 35.921875 -1.265625 C 32.609375 0.117188 28.703125 0.8125 24.203125 0.8125 Z M 24.203125 0.8125 "/></g></g></g><g fill="#202124" fill-opacity="1"><g transform="translate(109.028479, 138.854579)"><g><path d="M 23.015625 0.8125 C 17.472656 0.8125 13.363281 -0.472656 10.6875 -3.046875 C 8.019531 -5.617188 6.6875 -9.503906 6.6875 -14.703125 L 6.6875 -26.796875 L 4.15625 -26.796875 C 0.84375 -26.796875 -0.8125 -28.429688 -0.8125 -31.703125 C -0.8125 -34.910156 0.84375 -36.515625 4.15625 -36.515625 L 6.6875 -36.515625 L 6.6875 -41.125 C 6.6875 -43.300781 7.253906 -44.957031 8.390625 -46.09375 C 9.523438 -47.238281 11.15625 -47.8125 13.28125 -47.8125 C 17.6875 -47.8125 19.890625 -45.582031 19.890625 -41.125 L 19.890625 -36.515625 L 25.984375 -36.515625 C 29.347656 -36.515625 31.03125 -34.910156 31.03125 -31.703125 C 31.03125 -28.429688 29.347656 -26.796875 25.984375 -26.796875 L 19.890625 -26.796875 L 19.890625 -15.140625 C 19.890625 -11.578125 21.695312 -9.796875 25.3125 -9.796875 C 26.007812 -9.796875 26.675781 -9.867188 27.3125 -10.015625 C 27.957031 -10.171875 28.550781 -10.25 29.09375 -10.25 C 29.882812 -10.289062 30.523438 -10.050781 31.015625 -9.53125 C 31.515625 -9.019531 31.765625 -7.847656 31.765625 -6.015625 C 31.765625 -4.523438 31.539062 -3.273438 31.09375 -2.265625 C 30.65625 -1.253906 29.867188 -0.523438 28.734375 -0.078125 C 28.035156 0.171875 27.09375 0.378906 25.90625 0.546875 C 24.71875 0.722656 23.753906 0.8125 23.015625 0.8125 Z M 23.015625 0.8125 "/></g></g></g><g fill="#202124" fill-opacity="1"><g transform="translate(140.650457, 138.854579)"><g><path d="M 17.515625 0.8125 C 12.765625 0.8125 9.265625 -0.484375 7.015625 -3.078125 C 4.765625 -5.679688 3.640625 -9.65625 3.640625 -15 L 3.640625 -30.578125 C 3.640625 -34.984375 5.84375 -37.1875 10.25 -37.1875 C 12.375 -37.1875 14.003906 -36.617188 15.140625 -35.484375 C 16.273438 -34.347656 16.84375 -32.710938 16.84375 -30.578125 L 16.84375 -14.625 C 16.84375 -11.0625 18.378906 -9.28125 21.453125 -9.28125 C 23.234375 -9.28125 24.691406 -9.921875 25.828125 -11.203125 C 26.972656 -12.492188 27.546875 -14.203125 27.546875 -16.328125 L 27.546875 -30.578125 C 27.546875 -34.984375 29.742188 -37.1875 34.140625 -37.1875 C 36.273438 -37.1875 37.910156 -36.617188 39.046875 -35.484375 C 40.179688 -34.347656 40.75 -32.710938 40.75 -30.578125 L 40.75 -6.015625 C 40.75 -1.554688 38.625 0.671875 34.375 0.671875 C 30.5625 0.671875 28.40625 -1.109375 27.90625 -4.671875 C 25.53125 -1.015625 22.066406 0.8125 17.515625 0.8125 Z M 17.515625 0.8125 "/></g></g></g><g fill="#202124" fill-opacity="1"><g transform="translate(185.262686, 138.854579)"><g><path d="M 18.109375 0.8125 C 14.992188 0.8125 12.234375 0.046875 9.828125 -1.484375 C 7.429688 -3.015625 5.550781 -5.210938 4.1875 -8.078125 C 2.832031 -10.953125 2.15625 -14.347656 2.15625 -18.265625 C 2.15625 -22.222656 2.832031 -25.625 4.1875 -28.46875 C 5.550781 -31.3125 7.429688 -33.5 9.828125 -35.03125 C 12.234375 -36.570312 14.992188 -37.34375 18.109375 -37.34375 C 20.441406 -37.34375 22.582031 -36.859375 24.53125 -35.890625 C 26.488281 -34.921875 27.988281 -33.671875 29.03125 -32.140625 L 29.03125 -46.328125 C 29.03125 -50.773438 31.226562 -53 35.625 -53 C 37.757812 -53 39.394531 -52.429688 40.53125 -51.296875 C 41.664062 -50.160156 42.234375 -48.503906 42.234375 -46.328125 L 42.234375 -6.015625 C 42.234375 -1.554688 40.054688 0.671875 35.703125 0.671875 C 31.796875 0.671875 29.644531 -1.1875 29.25 -4.90625 C 28.257812 -3.164062 26.757812 -1.773438 24.75 -0.734375 C 22.75 0.296875 20.535156 0.8125 18.109375 0.8125 Z M 22.34375 -8.90625 C 24.320312 -8.90625 25.953125 -9.644531 27.234375 -11.125 C 28.523438 -12.613281 29.171875 -14.992188 29.171875 -18.265625 C 29.171875 -21.578125 28.523438 -23.960938 27.234375 -25.421875 C 25.953125 -26.878906 24.320312 -27.609375 22.34375 -27.609375 C 20.3125 -27.609375 18.648438 -26.878906 17.359375 -25.421875 C 16.078125 -23.960938 15.4375 -21.578125 15.4375 -18.265625 C 15.4375 -14.992188 16.078125 -12.613281 17.359375 -11.125 C 18.648438 -9.644531 20.3125 -8.90625 22.34375 -8.90625 Z M 22.34375 -8.90625 "/></g></g></g><g fill="#202124" fill-opacity="1"><g transform="translate(231.285283, 138.854579)"><g/></g></g><g fill="#202124" fill-opacity="1"><g transform="translate(252.515066, 138.854579)"><g><path d="M 22.34375 0.8125 C 18.28125 0.8125 14.738281 0.046875 11.71875 -1.484375 C 8.707031 -3.015625 6.359375 -5.210938 4.671875 -8.078125 C 2.992188 -10.953125 2.15625 -14.347656 2.15625 -18.265625 C 2.15625 -22.222656 2.992188 -25.625 4.671875 -28.46875 C 6.359375 -31.3125 8.707031 -33.5 11.71875 -35.03125 C 14.738281 -36.570312 18.28125 -37.34375 22.34375 -37.34375 C 26.40625 -37.34375 29.941406 -36.570312 32.953125 -35.03125 C 35.972656 -33.5 38.3125 -31.3125 39.96875 -28.46875 C 41.632812 -25.625 42.46875 -22.222656 42.46875 -18.265625 C 42.46875 -14.347656 41.632812 -10.953125 39.96875 -8.078125 C 38.3125 -5.210938 35.972656 -3.015625 32.953125 -1.484375 C 29.941406 0.046875 26.40625 0.8125 22.34375 0.8125 Z M 22.34375 -8.90625 C 24.320312 -8.90625 25.953125 -9.644531 27.234375 -11.125 C 28.523438 -12.613281 29.171875 -14.992188 29.171875 -18.265625 C 29.171875 -21.578125 28.523438 -23.960938 27.234375 -25.421875 C 25.953125 -26.878906 24.320312 -27.609375 22.34375 -27.609375 C 20.3125 -27.609375 18.648438 -26.878906 17.359375 -25.421875 C 16.078125 -23.960938 15.4375 -21.578125 15.4375 -18.265625 C 15.4375 -14.992188 16.078125 -12.613281 17.359375 -11.125 C 18.648438 -9.644531 20.3125 -8.90625 22.34375 -8.90625 Z M 22.34375 -8.90625 "/></g></g></g><g fill="#4880ff" fill-opacity="1"><g transform="translate(2.794218, 71.915576)"><g><path d="M 30.875 0.796875 C 25 0.796875 20.007812 -0.289062 15.90625 -2.46875 C 11.8125 -4.65625 8.691406 -7.710938 6.546875 -11.640625 C 4.410156 -15.578125 3.34375 -20.171875 3.34375 -25.421875 C 3.34375 -30.859375 4.472656 -35.578125 6.734375 -39.578125 C 8.992188 -43.585938 12.234375 -46.679688 16.453125 -48.859375 C 20.679688 -51.046875 25.78125 -52.140625 31.75 -52.140625 C 34.175781 -52.140625 36.648438 -51.910156 39.171875 -51.453125 C 41.703125 -50.992188 44.179688 -50.132812 46.609375 -48.875 C 47.867188 -48.289062 48.726562 -47.472656 49.1875 -46.421875 C 49.65625 -45.378906 49.800781 -44.273438 49.625 -43.109375 C 49.457031 -41.941406 49.035156 -40.910156 48.359375 -40.015625 C 47.679688 -39.117188 46.796875 -38.5 45.703125 -38.15625 C 44.609375 -37.820312 43.359375 -37.96875 41.953125 -38.59375 C 38.941406 -40 35.566406 -40.703125 31.828125 -40.703125 C 26.921875 -40.703125 23.265625 -39.390625 20.859375 -36.765625 C 18.460938 -34.148438 17.265625 -30.367188 17.265625 -25.421875 C 17.265625 -20.460938 18.476562 -16.722656 20.90625 -14.203125 C 23.332031 -11.679688 26.925781 -10.421875 31.6875 -10.421875 C 33.914062 -10.421875 36.414062 -10.757812 39.1875 -11.4375 L 39.1875 -19.515625 L 34.078125 -19.515625 C 30.628906 -19.515625 28.90625 -21.09375 28.90625 -24.25 C 28.90625 -27.351562 30.628906 -28.90625 34.078125 -28.90625 L 44.859375 -28.90625 C 48.359375 -28.90625 50.109375 -27.160156 50.109375 -23.671875 L 50.109375 -7.578125 C 50.109375 -6.117188 49.800781 -4.878906 49.1875 -3.859375 C 48.582031 -2.835938 47.625 -2.109375 46.3125 -1.671875 C 43.988281 -0.898438 41.503906 -0.296875 38.859375 0.140625 C 36.210938 0.578125 33.550781 0.796875 30.875 0.796875 Z M 30.875 0.796875 "/></g></g></g><g fill="#4880ff" fill-opacity="1"><g transform="translate(57.199285, 71.915576)"><g><path d="M 16.234375 0.796875 C 13.472656 0.796875 11.035156 0.289062 8.921875 -0.71875 C 6.804688 -1.738281 5.15625 -3.132812 3.96875 -4.90625 C 2.78125 -6.6875 2.1875 -8.71875 2.1875 -11 C 2.1875 -13.570312 2.863281 -15.617188 4.21875 -17.140625 C 5.582031 -18.671875 7.769531 -19.765625 10.78125 -20.421875 C 13.789062 -21.078125 17.796875 -21.40625 22.796875 -21.40625 L 25.5625 -21.40625 L 25.5625 -22.4375 C 25.5625 -24.175781 25.113281 -25.410156 24.21875 -26.140625 C 23.320312 -26.867188 21.78125 -27.234375 19.59375 -27.234375 C 18.375 -27.234375 17.046875 -27.097656 15.609375 -26.828125 C 14.179688 -26.566406 12.570312 -26.097656 10.78125 -25.421875 C 9.175781 -24.835938 7.835938 -24.859375 6.765625 -25.484375 C 5.703125 -26.117188 5.007812 -27.03125 4.6875 -28.21875 C 4.375 -29.40625 4.5 -30.59375 5.0625 -31.78125 C 5.625 -32.976562 6.703125 -33.867188 8.296875 -34.453125 C 10.628906 -35.273438 12.78125 -35.84375 14.75 -36.15625 C 16.71875 -36.46875 18.523438 -36.625 20.171875 -36.625 C 26.140625 -36.625 30.566406 -35.335938 33.453125 -32.765625 C 36.347656 -30.191406 37.796875 -26.140625 37.796875 -20.609375 L 37.796875 -5.90625 C 37.796875 -1.53125 35.804688 0.65625 31.828125 0.65625 C 28.035156 0.65625 26.019531 -1.285156 25.78125 -5.171875 C 25.101562 -3.328125 23.9375 -1.867188 22.28125 -0.796875 C 20.632812 0.265625 18.617188 0.796875 16.234375 0.796875 Z M 19.15625 -7.640625 C 20.945312 -7.640625 22.460938 -8.222656 23.703125 -9.390625 C 24.941406 -10.554688 25.5625 -12.085938 25.5625 -13.984375 L 25.5625 -15.296875 L 22.796875 -15.296875 C 19.929688 -15.296875 17.832031 -14.988281 16.5 -14.375 C 15.164062 -13.769531 14.5 -12.8125 14.5 -11.5 C 14.5 -10.382812 14.894531 -9.460938 15.6875 -8.734375 C 16.488281 -8.003906 17.644531 -7.640625 19.15625 -7.640625 Z M 19.15625 -7.640625 "/></g></g></g><g fill="#4880ff" fill-opacity="1"><g transform="translate(98.567527, 71.915576)"><g><path d="M 17.40625 0.796875 C 12.695312 0.796875 9.25 -0.453125 7.0625 -2.953125 C 4.875 -5.453125 3.78125 -9.226562 3.78125 -14.28125 L 3.78125 -45.4375 C 3.78125 -49.8125 5.921875 -52 10.203125 -52 C 12.285156 -52 13.894531 -51.441406 15.03125 -50.328125 C 16.175781 -49.210938 16.75 -47.582031 16.75 -45.4375 L 16.75 -14.71875 C 16.75 -12.914062 17.097656 -11.601562 17.796875 -10.78125 C 18.503906 -9.957031 19.414062 -9.546875 20.53125 -9.546875 C 20.875 -9.546875 21.226562 -9.582031 21.59375 -9.65625 C 21.957031 -9.726562 22.359375 -9.785156 22.796875 -9.828125 C 23.671875 -9.828125 24.300781 -9.507812 24.6875 -8.875 C 25.070312 -8.25 25.265625 -6.96875 25.265625 -5.03125 C 25.265625 -3.320312 24.925781 -2.039062 24.25 -1.1875 C 23.570312 -0.34375 22.53125 0.195312 21.125 0.4375 C 20.726562 0.53125 20.164062 0.613281 19.4375 0.6875 C 18.71875 0.757812 18.039062 0.796875 17.40625 0.796875 Z M 17.40625 0.796875 "/></g></g></g><g fill="#4880ff" fill-opacity="1"><g transform="translate(123.912858, 71.915576)"><g><path d="M 16.234375 0.796875 C 13.472656 0.796875 11.035156 0.289062 8.921875 -0.71875 C 6.804688 -1.738281 5.15625 -3.132812 3.96875 -4.90625 C 2.78125 -6.6875 2.1875 -8.71875 2.1875 -11 C 2.1875 -13.570312 2.863281 -15.617188 4.21875 -17.140625 C 5.582031 -18.671875 7.769531 -19.765625 10.78125 -20.421875 C 13.789062 -21.078125 17.796875 -21.40625 22.796875 -21.40625 L 25.5625 -21.40625 L 25.5625 -22.4375 C 25.5625 -24.175781 25.113281 -25.410156 24.21875 -26.140625 C 23.320312 -26.867188 21.78125 -27.234375 19.59375 -27.234375 C 18.375 -27.234375 17.046875 -27.097656 15.609375 -26.828125 C 14.179688 -26.566406 12.570312 -26.097656 10.78125 -25.421875 C 9.175781 -24.835938 7.835938 -24.859375 6.765625 -25.484375 C 5.703125 -26.117188 5.007812 -27.03125 4.6875 -28.21875 C 4.375 -29.40625 4.5 -30.59375 5.0625 -31.78125 C 5.625 -32.976562 6.703125 -33.867188 8.296875 -34.453125 C 10.628906 -35.273438 12.78125 -35.84375 14.75 -36.15625 C 16.71875 -36.46875 18.523438 -36.625 20.171875 -36.625 C 26.140625 -36.625 30.566406 -35.335938 33.453125 -32.765625 C 36.347656 -30.191406 37.796875 -26.140625 37.796875 -20.609375 L 37.796875 -5.90625 C 37.796875 -1.53125 35.804688 0.65625 31.828125 0.65625 C 28.035156 0.65625 26.019531 -1.285156 25.78125 -5.171875 C 25.101562 -3.328125 23.9375 -1.867188 22.28125 -0.796875 C 20.632812 0.265625 18.617188 0.796875 16.234375 0.796875 Z M 19.15625 -7.640625 C 20.945312 -7.640625 22.460938 -8.222656 23.703125 -9.390625 C 24.941406 -10.554688 25.5625 -12.085938 25.5625 -13.984375 L 25.5625 -15.296875 L 22.796875 -15.296875 C 19.929688 -15.296875 17.832031 -14.988281 16.5 -14.375 C 15.164062 -13.769531 14.5 -12.8125 14.5 -11.5 C 14.5 -10.382812 14.894531 -9.460938 15.6875 -8.734375 C 16.488281 -8.003906 17.644531 -7.640625 19.15625 -7.640625 Z M 19.15625 -7.640625 "/></g></g></g><g fill="#4880ff" fill-opacity="1"><g transform="translate(165.2811, 71.915576)"><g><path d="M 22.0625 0.796875 C 18.03125 0.796875 14.519531 0.046875 11.53125 -1.453125 C 8.550781 -2.960938 6.234375 -5.125 4.578125 -7.9375 C 2.929688 -10.75 2.109375 -14.097656 2.109375 -17.984375 C 2.109375 -21.867188 2.929688 -25.207031 4.578125 -28 C 6.234375 -30.789062 8.550781 -32.925781 11.53125 -34.40625 C 14.519531 -35.882812 18.03125 -36.625 22.0625 -36.625 C 23.46875 -36.625 24.945312 -36.488281 26.5 -36.21875 C 28.0625 -35.957031 29.664062 -35.460938 31.3125 -34.734375 C 32.425781 -34.296875 33.226562 -33.628906 33.71875 -32.734375 C 34.207031 -31.835938 34.414062 -30.878906 34.34375 -29.859375 C 34.269531 -28.835938 33.976562 -27.914062 33.46875 -27.09375 C 32.957031 -26.269531 32.25 -25.710938 31.34375 -25.421875 C 30.445312 -25.128906 29.441406 -25.25 28.328125 -25.78125 C 26.722656 -26.507812 25.097656 -26.875 23.453125 -26.875 C 20.878906 -26.875 18.882812 -26.097656 17.46875 -24.546875 C 16.0625 -22.992188 15.359375 -20.804688 15.359375 -17.984375 C 15.359375 -15.117188 16.0625 -12.894531 17.46875 -11.3125 C 18.882812 -9.738281 20.878906 -8.953125 23.453125 -8.953125 C 24.222656 -8.953125 25.019531 -9.035156 25.84375 -9.203125 C 26.675781 -9.378906 27.503906 -9.660156 28.328125 -10.046875 C 29.492188 -10.578125 30.5 -10.6875 31.34375 -10.375 C 32.195312 -10.0625 32.878906 -9.503906 33.390625 -8.703125 C 33.898438 -7.898438 34.191406 -6.988281 34.265625 -5.96875 C 34.335938 -4.945312 34.128906 -3.988281 33.640625 -3.09375 C 33.160156 -2.195312 32.335938 -1.53125 31.171875 -1.09375 C 29.515625 -0.363281 27.929688 0.128906 26.421875 0.390625 C 24.921875 0.660156 23.46875 0.796875 22.0625 0.796875 Z M 22.0625 0.796875 "/></g></g></g><g fill="#4880ff" fill-opacity="1"><g transform="translate(200.531503, 71.915576)"><g><path d="M 22.578125 0.796875 C 17.140625 0.796875 13.109375 -0.460938 10.484375 -2.984375 C 7.859375 -5.503906 6.546875 -9.316406 6.546875 -14.421875 L 6.546875 -26.296875 L 4.078125 -26.296875 C 0.828125 -26.296875 -0.796875 -27.894531 -0.796875 -31.09375 C -0.796875 -34.25 0.828125 -35.828125 4.078125 -35.828125 L 6.546875 -35.828125 L 6.546875 -40.34375 C 6.546875 -42.476562 7.101562 -44.101562 8.21875 -45.21875 C 9.34375 -46.34375 10.945312 -46.90625 13.03125 -46.90625 C 17.351562 -46.90625 19.515625 -44.71875 19.515625 -40.34375 L 19.515625 -35.828125 L 25.484375 -35.828125 C 28.785156 -35.828125 30.4375 -34.25 30.4375 -31.09375 C 30.4375 -27.894531 28.785156 -26.296875 25.484375 -26.296875 L 19.515625 -26.296875 L 19.515625 -14.859375 C 19.515625 -11.359375 21.285156 -9.609375 24.828125 -9.609375 C 25.515625 -9.609375 26.171875 -9.679688 26.796875 -9.828125 C 27.429688 -9.972656 28.015625 -10.046875 28.546875 -10.046875 C 29.328125 -10.097656 29.957031 -9.867188 30.4375 -9.359375 C 30.925781 -8.847656 31.171875 -7.695312 31.171875 -5.90625 C 31.171875 -4.445312 30.953125 -3.21875 30.515625 -2.21875 C 30.078125 -1.226562 29.300781 -0.515625 28.1875 -0.078125 C 27.507812 0.171875 26.585938 0.378906 25.421875 0.546875 C 24.253906 0.710938 23.304688 0.796875 22.578125 0.796875 Z M 22.578125 0.796875 "/></g></g></g><g fill="#4880ff" fill-opacity="1"><g transform="translate(231.5577, 71.915576)"><g><path d="M 10.203125 -41.65625 C 7.910156 -41.65625 6.144531 -42.1875 4.90625 -43.25 C 3.675781 -44.320312 3.0625 -45.878906 3.0625 -47.921875 C 3.0625 -49.910156 3.675781 -51.4375 4.90625 -52.5 C 6.144531 -53.570312 7.910156 -54.109375 10.203125 -54.109375 C 15.003906 -54.109375 17.40625 -52.046875 17.40625 -47.921875 C 17.40625 -45.878906 16.785156 -44.320312 15.546875 -43.25 C 14.304688 -42.1875 12.523438 -41.65625 10.203125 -41.65625 Z M 10.203125 0.65625 C 8.109375 0.65625 6.515625 0.0507812 5.421875 -1.15625 C 4.328125 -2.375 3.78125 -4.125 3.78125 -6.40625 L 3.78125 -29.421875 C 3.78125 -31.703125 4.328125 -33.445312 5.421875 -34.65625 C 6.515625 -35.875 8.109375 -36.484375 10.203125 -36.484375 C 12.285156 -36.484375 13.894531 -35.875 15.03125 -34.65625 C 16.175781 -33.445312 16.75 -31.703125 16.75 -29.421875 L 16.75 -6.40625 C 16.75 -4.125 16.191406 -2.375 15.078125 -1.15625 C 13.960938 0.0507812 12.335938 0.65625 10.203125 0.65625 Z M 10.203125 0.65625 "/></g></g></g><g fill="#4880ff" fill-opacity="1"><g transform="translate(252.023334, 71.915576)"><g><path d="M 22.0625 0.796875 C 18.03125 0.796875 14.519531 0.046875 11.53125 -1.453125 C 8.550781 -2.960938 6.234375 -5.125 4.578125 -7.9375 C 2.929688 -10.75 2.109375 -14.097656 2.109375 -17.984375 C 2.109375 -21.867188 2.929688 -25.207031 4.578125 -28 C 6.234375 -30.789062 8.550781 -32.925781 11.53125 -34.40625 C 14.519531 -35.882812 18.03125 -36.625 22.0625 -36.625 C 23.46875 -36.625 24.945312 -36.488281 26.5 -36.21875 C 28.0625 -35.957031 29.664062 -35.460938 31.3125 -34.734375 C 32.425781 -34.296875 33.226562 -33.628906 33.71875 -32.734375 C 34.207031 -31.835938 34.414062 -30.878906 34.34375 -29.859375 C 34.269531 -28.835938 33.976562 -27.914062 33.46875 -27.09375 C 32.957031 -26.269531 32.25 -25.710938 31.34375 -25.421875 C 30.445312 -25.128906 29.441406 -25.25 28.328125 -25.78125 C 26.722656 -26.507812 25.097656 -26.875 23.453125 -26.875 C 20.878906 -26.875 18.882812 -26.097656 17.46875 -24.546875 C 16.0625 -22.992188 15.359375 -20.804688 15.359375 -17.984375 C 15.359375 -15.117188 16.0625 -12.894531 17.46875 -11.3125 C 18.882812 -9.738281 20.878906 -8.953125 23.453125 -8.953125 C 24.222656 -8.953125 25.019531 -9.035156 25.84375 -9.203125 C 26.675781 -9.378906 27.503906 -9.660156 28.328125 -10.046875 C 29.492188 -10.578125 30.5 -10.6875 31.34375 -10.375 C 32.195312 -10.0625 32.878906 -9.503906 33.390625 -8.703125 C 33.898438 -7.898438 34.191406 -6.988281 34.265625 -5.96875 C 34.335938 -4.945312 34.128906 -3.988281 33.640625 -3.09375 C 33.160156 -2.195312 32.335938 -1.53125 31.171875 -1.09375 C 29.515625 -0.363281 27.929688 0.128906 26.421875 0.390625 C 24.921875 0.660156 23.46875 0.796875 22.0625 0.796875 Z M 22.0625 0.796875 "/></g></g></g><g clip-path="url(#9ba5b9d515)"><g clip-path="url(#28a039547f)"><path fill="#202124" d="M 234.886719 34 L 248.839844 34 L 248.839844 149.730469 L 234.886719 149.730469 Z M 234.886719 34 " fill-opacity="1" fill-rule="nonzero"/></g></g><g fill="#202124" fill-opacity="1"><g transform="translate(260.313744, 173.849124)"><g><path d="M 6.28125 -12.765625 C 3.28125 -9.898438 0.03125 -7.691406 -3.46875 -6.140625 C -6.96875 -4.585938 -10.625 -3.519531 -14.4375 -2.9375 C -18.238281 -2.351562 -22.046875 -2.273438 -25.859375 -2.703125 C -29.671875 -3.128906 -33.429688 -4.257812 -37.140625 -6.09375 C -38.066406 -6.5625 -38.703125 -7.222656 -39.046875 -8.078125 C -39.390625 -8.929688 -39.453125 -9.796875 -39.234375 -10.671875 C -39.023438 -11.554688 -38.515625 -12.253906 -37.703125 -12.765625 C -36.898438 -13.285156 -35.765625 -13.421875 -34.296875 -13.171875 C -30.941406 -12.597656 -27.84375 -12.28125 -25 -12.21875 C -22.15625 -12.164062 -19.144531 -12.382812 -15.96875 -12.875 C -12.769531 -13.363281 -9.820312 -14.0625 -7.125 -14.96875 C -4.4375 -15.875 -1.582031 -17.101562 1.4375 -18.65625 C 2.75 -19.332031 3.863281 -19.546875 4.78125 -19.296875 C 5.707031 -19.046875 6.410156 -18.535156 6.890625 -17.765625 C 7.378906 -16.992188 7.578125 -16.140625 7.484375 -15.203125 C 7.390625 -14.265625 6.988281 -13.453125 6.28125 -12.765625 Z M 6.28125 -12.765625 "/></g></g></g></svg>