<svg xmlns="http://www.w3.org/2000/svg" xmlns:xlink="http://www.w3.org/1999/xlink" width="500" zoomAndPan="magnify" viewBox="0 0 375 150" height="200" preserveAspectRatio="xMidYMid meet" xmlns:v="https://vecta.io/nano"><g fill="#4880ff"><use xlink:href="#B"/><use xlink:href="#C"/><path d="M115.208 118.922c-6.398 0-11.664-.82-15.797-2.453-2.031-.742-3.344-1.82-3.937-3.234-.594-1.406-.668-2.836-.219-4.281.457-1.437 1.266-2.543 2.422-3.312 1.156-.762 2.523-.859 4.109-.297 2.488 1.02 4.738 1.688 6.75 2s3.75.469 5.219.469c3.457 0 6.047-.727 7.766-2.172 1.727-1.437 2.594-3.68 2.594-6.734V95c-1.187 2.031-2.969 3.641-5.344 4.828s-4.922 1.781-7.641 1.781c-3.742 0-6.996-.859-9.766-2.578-2.773-1.727-4.937-4.145-6.5-7.25-1.555-3.113-2.328-6.766-2.328-10.953s.773-7.836 2.328-10.953c1.563-3.113 3.727-5.531 6.5-7.25 2.77-1.727 6.023-2.594 9.766-2.594 2.77 0 5.328.586 7.672 1.75 2.352 1.156 4.066 2.727 5.141 4.703.508-4.187 3-6.281 7.469-6.281 4.914 0 7.375 2.516 7.375 7.547v29.375c0 7.289-2.039 12.742-6.109 16.359-4.074 3.625-9.898 5.438-17.469 5.438zm.594-28.422c2.488 0 4.469-.848 5.938-2.547s2.203-4.07 2.203-7.125-.734-5.426-2.203-7.125-3.449-2.547-5.937-2.547c-2.437 0-4.391.852-5.859 2.547s-2.203 4.074-2.203 7.125.734 5.43 2.203 7.125 3.422 2.547 5.859 2.547zm0 0"/><use xlink:href="#C" x="76.964"/></g><g fill="#202124"><use xlink:href="#B" x="153.41"/><use xlink:href="#D"/><path d="M282.873 103.485c-5.156 0-7.734-2.547-7.734-7.641V67.75c0-5.031 2.461-7.547 7.391-7.547 2.32 0 4.117.652 5.391 1.953s1.906 3.168 1.906 5.594v.266c.957-2.437 2.508-4.359 4.656-5.766 2.156-1.414 4.703-2.156 7.641-2.219 1.645-.051 2.875.359 3.688 1.234.82.875 1.266 2.5 1.328 4.875 0 2.043-.43 3.656-1.281 4.844-.844 1.188-2.453 1.898-4.828 2.125l-1.953.156c-3 .293-5.184 1.133-6.547 2.516-1.355 1.387-2.031 3.434-2.031 6.141v13.922c0 5.094-2.543 7.641-7.625 7.641zm0 0"/><use xlink:href="#D" x="87.91"/></g><defs ><path id="B" d="M34.332 103.657c-3.562 0-6.719-.875-9.469-2.625-2.742-1.758-4.891-4.281-6.453-7.562-1.555-3.281-2.328-7.156-2.328-11.625 0-4.531.773-8.422 2.328-11.672 1.563-3.25 3.711-5.75 6.453-7.5 2.75-1.758 5.906-2.641 9.469-2.641 2.656 0 5.098.555 7.328 1.656 2.238 1.105 3.957 2.531 5.156 4.281V49.766c0-5.094 2.516-7.641 7.547-7.641 2.426 0 4.289.652 5.594 1.953s1.953 3.199 1.953 5.688v46.078c0 5.094-2.492 7.641-7.469 7.641-4.469 0-6.93-2.117-7.375-6.359-1.137 1.98-2.852 3.563-5.141 4.75s-4.824 1.781-7.594 1.781zm4.844-11.125c2.258 0 4.125-.848 5.594-2.547s2.203-4.41 2.203-8.141c0-3.789-.734-6.52-2.203-8.187s-3.336-2.5-5.594-2.5c-2.324 0-4.219.836-5.687 2.5s-2.203 4.398-2.203 8.188c0 3.73.734 6.445 2.203 8.141s3.363 2.547 5.688 2.547zm0 0"/><path id="C" d="M78.114 54.172c-2.656 0-4.711-.617-6.156-1.859-1.437-1.238-2.156-3.051-2.156-5.437 0-2.312.719-4.086 2.156-5.328 1.445-1.25 3.5-1.875 6.156-1.875 5.602 0 8.406 2.402 8.406 7.203 0 2.387-.727 4.199-2.172 5.438-1.437 1.242-3.516 1.859-6.234 1.859zm0 49.313c-2.43 0-4.281-.711-5.562-2.125-1.273-1.414-1.906-3.453-1.906-6.109V68.438c0-2.656.633-4.691 1.906-6.109 1.281-1.414 3.133-2.125 5.563-2.125 2.438 0 4.316.711 5.641 2.125 1.332 1.418 2 3.453 2 6.109V95.25c0 2.656-.652 4.695-1.953 6.109s-3.199 2.125-5.687 2.125zm0 0"/><path id="D" d="M245.196 103.657c-4.648 0-8.695-.875-12.141-2.625-3.449-1.758-6.137-4.281-8.062-7.562s-2.891-7.156-2.891-11.625c0-4.531.961-8.422 2.891-11.672s4.613-5.75 8.063-7.5c3.445-1.758 7.492-2.641 12.141-2.641 4.633 0 8.676.883 12.125 2.641 3.457 1.75 6.133 4.25 8.031 7.5s2.844 7.141 2.844 11.672c0 4.469-.949 8.344-2.844 11.625s-4.574 5.805-8.031 7.563c-3.449 1.75-7.492 2.625-12.125 2.625zm0-11.125c2.258 0 4.125-.848 5.594-2.547s2.203-4.41 2.203-8.141c0-3.789-.734-6.52-2.203-8.187s-3.336-2.5-5.594-2.5c-2.324 0-4.219.836-5.687 2.5s-2.203 4.398-2.203 8.188c0 3.73.734 6.445 2.203 8.141s3.363 2.547 5.688 2.547zm0 0"/></defs></svg>