<svg width="201" height="201" viewBox="0 0 201 201" fill="none" xmlns="http://www.w3.org/2000/svg">
<path fill-rule="evenodd" clip-rule="evenodd" d="M100.211 68.895C103.67 68.895 106.474 71.6991 106.474 75.1582V93.9476H125.263C128.722 93.9476 131.526 96.7517 131.526 100.211C131.526 103.67 128.722 106.474 125.263 106.474H106.474V125.263C106.474 128.722 103.67 131.527 100.211 131.527C96.7515 131.527 93.9474 128.722 93.9474 125.263V106.474H75.1579C71.6989 106.474 68.8948 103.67 68.8948 100.211C68.8948 96.7517 71.6989 93.9476 75.1579 93.9476H93.9474V75.1582C93.9474 71.6991 96.7515 68.895 100.211 68.895Z" fill="#202124"/>
<path d="M37.5789 0H162.842C176.678 0 187.894 11.2164 187.894 25.0526V175.368C187.894 189.204 176.678 200.421 162.842 200.421H37.5789C23.7427 200.421 12.5263 189.204 12.5263 175.368V162.842H25.0526V175.368C25.0526 182.286 30.6608 187.894 37.5789 187.894H162.842C169.76 187.894 175.368 182.286 175.368 175.368V25.0526C175.368 18.1345 169.76 12.5263 162.842 12.5263H37.5789C30.6608 12.5263 25.0526 18.1345 25.0526 25.0526V37.5789H12.5263V25.0526C12.5263 11.2164 23.7427 0 37.5789 0Z" fill="#202124"/>
<path d="M12.5263 62.6315V56.3683C12.5263 52.9093 15.3304 50.1052 18.7894 50.1052C22.2485 50.1052 25.0526 52.9093 25.0526 56.3683V62.6315H31.3157C34.7748 62.6315 37.5789 65.4356 37.5789 68.8946C37.5789 72.3537 34.7748 75.1578 31.3157 75.1578H6.26315C2.80411 75.1578 0 72.3537 0 68.8946C0 65.4356 2.80411 62.6315 6.26315 62.6315H12.5263Z" fill="#202124"/>
<path d="M12.5263 100.21V93.9472C12.5263 90.4882 15.3304 87.6841 18.7894 87.6841C22.2485 87.6841 25.0526 90.4882 25.0526 93.9472V100.21H31.3157C34.7748 100.21 37.5789 103.014 37.5789 106.474C37.5789 109.933 34.7748 112.737 31.3157 112.737H6.26315C2.80411 112.737 0 109.933 0 106.474C0 103.014 2.80411 100.21 6.26315 100.21H12.5263Z" fill="#202124"/>
<path d="M12.5263 137.789V131.526C12.5263 128.067 15.3304 125.263 18.7894 125.263C22.2485 125.263 25.0526 128.067 25.0526 131.526V137.789H31.3157C34.7748 137.789 37.5789 140.593 37.5789 144.052C37.5789 147.511 34.7748 150.316 31.3157 150.316H6.26315C2.80411 150.316 0 147.511 0 144.052C0 140.593 2.80411 137.789 6.26315 137.789H12.5263Z" fill="#202124"/>
</svg>
