<svg width="216" height="216" viewBox="0 0 216 216" fill="none" xmlns="http://www.w3.org/2000/svg">
<path d="M107.666 184.018C120.118 184.018 130.721 179.66 139.473 170.943C148.225 162.226 152.601 151.641 152.601 139.188C152.601 126.736 148.242 116.133 139.525 107.381C130.809 98.6291 120.224 94.253 107.771 94.253C95.3184 94.253 84.716 98.6115 75.9639 107.328C67.2118 116.045 62.8357 126.63 62.8357 139.083C62.8357 151.536 67.1942 162.138 75.9111 170.89C84.6279 179.642 95.2127 184.018 107.666 184.018ZM77.647 89.0915C81.836 86.5482 86.3243 84.5659 91.1117 83.1446C95.8992 81.7233 100.911 80.9379 106.147 80.7883L81.462 31.4174H48.6977L77.647 89.0915ZM137.79 89.0915L166.739 31.4174H133.975L109.289 80.7883C114.525 80.9379 119.537 81.7233 124.325 83.1446C129.112 84.5659 133.601 86.5482 137.79 89.0915ZM61.2648 174.368C57.5246 169.431 54.6072 164.008 52.5127 158.099C50.4182 152.189 49.3709 145.868 49.3709 139.136C49.3709 132.403 50.4182 126.082 52.5127 120.173C54.6072 114.263 57.5246 108.84 61.2648 103.903C52.7371 105.399 45.6307 109.401 39.9456 115.909C34.2605 122.417 31.4179 130.159 31.4179 139.136C31.4179 148.112 34.2605 155.854 39.9456 162.362C45.6307 168.87 52.7371 172.872 61.2648 174.368ZM154.172 174.368C162.699 172.872 169.806 168.87 175.491 162.362C181.176 155.854 184.019 148.112 184.019 139.136C184.019 130.159 181.176 122.417 175.491 115.909C169.806 109.401 162.699 105.399 154.172 103.903C157.912 108.84 160.829 114.263 162.924 120.173C165.018 126.082 166.066 132.403 166.066 139.136C166.066 145.868 165.018 152.189 162.924 158.099C160.829 164.008 157.912 169.431 154.172 174.368ZM107.718 197.483C101.734 197.483 96.0114 196.623 90.5507 194.902C85.09 193.182 80.0407 190.825 75.4028 187.833C74.0564 188.132 72.7099 188.319 71.3634 188.394C70.0169 188.469 68.5956 188.506 67.0996 188.506C53.4852 188.506 41.8905 183.719 32.3156 174.144C22.7406 164.569 17.9531 152.974 17.9531 139.36C17.9531 126.344 22.2918 115.198 30.9691 105.923C39.6464 96.6468 50.3434 91.4853 63.0601 90.438L31.8667 27.6024C30.6699 25.3583 30.726 23.1889 32.035 21.0944C33.3441 18.9999 35.3077 17.9526 37.9259 17.9526H81.462C84.0791 17.9526 86.4401 18.6259 88.5451 19.9724C90.6503 21.3188 92.3287 23.1141 93.5803 25.3583L107.718 53.8587L121.856 25.3583C123.108 23.1141 124.786 21.3188 126.891 19.9724C128.996 18.6259 131.358 17.9526 133.975 17.9526H177.511C180.129 17.9526 182.092 18.9999 183.402 21.0944C184.711 23.1889 184.767 25.3583 183.57 27.6024L152.601 89.8898C165.318 91.1529 175.977 96.4224 184.58 105.698C193.182 114.974 197.483 126.12 197.483 139.136C197.483 152.9 192.696 164.569 183.121 174.144C173.546 183.719 161.877 188.506 148.113 188.506C146.766 188.506 145.382 188.469 143.961 188.394C142.54 188.319 141.156 188.132 139.809 187.833C135.171 190.825 130.16 193.182 124.774 194.902C119.388 196.623 113.703 197.483 107.718 197.483ZM100.724 146.13L88.6432 140.707C87.8952 140.347 87.5211 139.809 87.5211 139.091C87.5211 138.373 87.8952 137.864 88.6432 137.565L100.724 132.141L106.147 120.061C106.506 119.312 107.045 118.938 107.763 118.938C108.481 118.938 108.99 119.312 109.289 120.061L114.713 132.141L126.793 137.565C127.541 137.924 127.915 138.462 127.915 139.181C127.915 139.899 127.541 140.407 126.793 140.707L114.713 146.13L109.289 158.211C108.93 158.959 108.392 159.333 107.673 159.333C106.955 159.333 106.447 158.959 106.147 158.211L100.724 146.13Z" fill="#202124"/>
</svg>
