<svg width="215" height="215" viewBox="0 0 215 215" fill="none" xmlns="http://www.w3.org/2000/svg">
<path d="M40.184 187.522C36.6122 187.522 33.4868 186.183 30.8079 183.504C28.129 180.825 26.7896 177.699 26.7896 174.128V40.183C26.7896 36.6112 28.129 33.4858 30.8079 30.8069C33.4868 28.128 36.6122 26.7886 40.184 26.7886H174.129C177.7 26.7886 180.826 28.128 183.505 30.8069C186.184 33.4858 187.523 36.6112 187.523 40.183V126.801C185.491 125.622 183.346 124.657 181.087 123.907C178.829 123.157 176.51 122.485 174.129 121.889V40.183H40.184V174.128H111.621C111.77 176.509 111.999 178.809 112.308 181.029C112.617 183.249 113.132 185.413 113.854 187.522H40.184ZM66.9729 150.464C68.7588 150.464 70.3215 149.794 71.661 148.455C73.0004 147.115 73.6701 145.553 73.6701 143.767C73.6701 141.981 73.0004 140.418 71.661 139.079C70.3215 137.739 68.7588 137.07 66.9729 137.07C65.187 137.07 63.6243 137.739 62.2849 139.079C60.9454 140.418 60.2757 141.981 60.2757 143.767C60.2757 145.553 60.9454 147.115 62.2849 148.455C63.6243 149.794 65.187 150.464 66.9729 150.464ZM66.9729 113.853C68.7588 113.853 70.3215 113.183 71.661 111.843C73.0004 110.504 73.6701 108.941 73.6701 107.155C73.6701 105.369 73.0004 103.807 71.661 102.467C70.3215 101.128 68.7588 100.458 66.9729 100.458C65.187 100.458 63.6243 101.128 62.2849 102.467C60.9454 103.807 60.2757 105.369 60.2757 107.155C60.2757 108.941 60.9454 110.504 62.2849 111.843C63.6243 113.183 65.187 113.853 66.9729 113.853ZM66.9729 77.241C68.7588 77.241 70.3215 76.5713 71.661 75.2319C73.0004 73.8924 73.6701 72.3297 73.6701 70.5438C73.6701 68.7579 73.0004 67.1952 71.661 65.8557C70.3215 64.5163 68.7588 63.8466 66.9729 63.8466C65.187 63.8466 63.6243 64.5163 62.2849 65.8557C60.9454 67.1952 60.2757 68.7579 60.2757 70.5438C60.2757 72.3297 60.9454 73.8924 62.2849 75.2319C63.6243 76.5713 65.187 77.241 66.9729 77.241ZM144.214 113.853C146.112 113.853 147.702 113.207 148.986 111.916C150.27 110.625 150.912 109.025 150.912 107.116C150.912 105.208 150.27 103.621 148.986 102.356C147.702 101.091 146.112 100.458 144.214 100.458H103.138C101.24 100.458 99.6498 101.104 98.3662 102.395C97.0825 103.686 96.4407 105.286 96.4407 107.194C96.4407 109.103 97.0825 110.69 98.3662 111.955C99.6498 113.22 101.24 113.853 103.138 113.853H144.214ZM144.214 77.241C146.112 77.241 147.702 76.5955 148.986 75.3044C150.27 74.0132 150.912 72.4133 150.912 70.5047C150.912 68.596 150.27 67.0091 148.986 65.7441C147.702 64.4791 146.112 63.8466 144.214 63.8466H103.138C101.24 63.8466 99.6498 64.4921 98.3662 65.7832C97.0825 67.0744 96.4407 68.6743 96.4407 70.5829C96.4407 72.4916 97.0825 74.0784 98.3662 75.3435C99.6498 76.6085 101.24 77.241 103.138 77.241H144.214ZM116.309 150.464C117.5 147.934 118.876 145.59 120.439 143.432C122.002 141.274 123.676 139.153 125.462 137.07H103.138C101.24 137.07 99.6498 137.715 98.3662 139.006C97.0825 140.297 96.4407 141.897 96.4407 143.806C96.4407 145.715 97.0825 147.301 98.3662 148.566C99.6498 149.832 101.24 150.464 103.138 150.464H116.309ZM156.269 178.592H136.178C134.28 178.592 132.689 177.947 131.406 176.656C130.122 175.365 129.48 173.765 129.48 171.856C129.48 169.947 130.122 168.361 131.406 167.095C132.689 165.83 134.28 165.198 136.178 165.198H156.269V145.106C156.269 143.209 156.915 141.618 158.206 140.334C159.497 139.051 161.097 138.409 163.006 138.409C164.914 138.409 166.501 139.051 167.766 140.334C169.031 141.618 169.664 143.209 169.664 145.106V165.198H189.755C191.653 165.198 193.244 165.843 194.527 167.135C195.811 168.426 196.453 170.026 196.453 171.934C196.453 173.843 195.811 175.43 194.527 176.695C193.244 177.96 191.653 178.592 189.755 178.592H169.664V198.684C169.664 200.582 169.018 202.173 167.727 203.457C166.436 204.74 164.836 205.381 162.927 205.381C161.019 205.381 159.432 204.74 158.167 203.457C156.902 202.173 156.269 200.582 156.269 198.684V178.592Z" fill="#202124"/>
</svg>
