<svg xmlns="http://www.w3.org/2000/svg" xmlns:xlink="http://www.w3.org/1999/xlink" width="500" zoomAndPan="magnify" viewBox="0 0 375 375" height="500" preserveAspectRatio="xMidYMid meet" xmlns:v="https://vecta.io/nano"><style><![CDATA[.B{clip-rule:nonzero}.C{stroke-width:6.001}]]></style><defs><clipPath id="A"><path d="M43.5 46.172h300v294.727h-300zm0 0" class="B"/></clipPath><clipPath id="B"><path d="M60.75 46.172h265.5a17.26 17.26 0 0 1 12.199 5.051 17.25 17.25 0 0 1 5.051 12.199v260.156a17.25 17.25 0 0 1-5.051 12.199 17.26 17.26 0 0 1-12.199 5.051H60.75a17.26 17.26 0 0 1-12.199-5.051 17.25 17.25 0 0 1-5.051-12.199V63.422a17.25 17.25 0 0 1 5.051-12.199 17.26 17.26 0 0 1 12.199-5.051" class="B"/></clipPath><clipPath id="C"><path d="M43.5 46.172h300v294.75h-300zm0 0" class="B"/></clipPath><clipPath id="D"><path d="M60.75 46.172h265.5c4.574 0 8.961 1.816 12.195 5.051a17.27 17.27 0 0 1 5.055 12.203v260.238a17.27 17.27 0 0 1-5.055 12.203 17.25 17.25 0 0 1-12.195 5.055H60.75a17.25 17.25 0 0 1-12.195-5.055 17.27 17.27 0 0 1-5.055-12.203V63.426a17.27 17.27 0 0 1 5.055-12.203c3.234-3.234 7.621-5.051 12.195-5.051" class="B"/></clipPath><clipPath id="E"><path d="M31.5 34.172h300v294.727h-300zm0 0" class="B"/></clipPath><clipPath id="F"><path d="M48.75 34.172h265.5a17.26 17.26 0 0 1 12.199 5.051 17.25 17.25 0 0 1 5.051 12.199v260.156a17.25 17.25 0 0 1-5.051 12.199 17.26 17.26 0 0 1-12.199 5.051H48.75a17.26 17.26 0 0 1-12.199-5.051 17.25 17.25 0 0 1-5.051-12.199V51.422a17.25 17.25 0 0 1 5.051-12.199 17.26 17.26 0 0 1 12.199-5.051" class="B"/></clipPath><clipPath id="G"><path d="M31.5 34.172h300v294.75h-300zm0 0" class="B"/></clipPath><clipPath id="H"><path d="M48.75 34.172h265.5c4.574 0 8.961 1.816 12.195 5.051a17.27 17.27 0 0 1 5.055 12.203v260.238a17.27 17.27 0 0 1-5.055 12.203 17.25 17.25 0 0 1-12.195 5.055H48.75a17.25 17.25 0 0 1-12.195-5.055 17.27 17.27 0 0 1-5.055-12.203V51.426a17.27 17.27 0 0 1 5.055-12.203c3.234-3.234 7.621-5.051 12.195-5.051" class="B"/></clipPath><path id="I" d="M102.495 136.984c-5.449 0-9.652-1.273-12.609-3.828s-4.437-6.266-4.437-11.141c0-4.75 1.477-8.398 4.438-10.953 2.957-2.562 7.16-3.844 12.609-3.844 11.488 0 17.234 4.934 17.234 14.797 0 4.875-1.48 8.59-4.437 11.141s-7.227 3.828-12.797 3.828zm0 101.109c-4.992 0-8.793-1.449-11.406-4.344-2.605-2.906-3.906-7.082-3.906-12.531v-55c0-5.445 1.301-9.617 3.906-12.516 2.613-2.906 6.414-4.359 11.406-4.359s8.848 1.453 11.578 4.359c2.727 2.898 4.094 7.07 4.094 12.516v55c0 5.449-1.34 9.625-4.016 12.531-2.668 2.895-6.555 4.344-11.656 4.344zm0 0"/></defs><g fill="#fff"><path d="M-37.5-37.5h450v450h-450z"/><path d="M-37.5-37.5h450v450h-450z"/><path d="M-37.5-37.5h450v450h-450z"/></g><g clip-path="url(#A)"><g clip-path="url(#B)"><path fill="#4880ff" d="M43.5 46.172h300v294.727h-300zm0 0"/></g></g><g clip-path="url(#C)" class="C"><g clip-path="url(#D)"><path fill="none" d="M60.75 46.172h265.5c4.574 0 8.961 1.816 12.195 5.051a17.27 17.27 0 0 1 5.055 12.203v260.238a17.27 17.27 0 0 1-5.055 12.203 17.25 17.25 0 0 1-12.195 5.055H60.75a17.25 17.25 0 0 1-12.195-5.055 17.27 17.27 0 0 1-5.055-12.203V63.426a17.27 17.27 0 0 1 5.055-12.203c3.234-3.234 7.621-5.051 12.195-5.051" stroke="#202124"/></g></g><g clip-path="url(#E)"><g clip-path="url(#F)"><path fill="#fff" d="M31.5 34.172h300v294.727h-300zm0 0"/></g></g><g clip-path="url(#G)" class="C"><g clip-path="url(#H)"><path fill="none" d="M48.75 34.172h265.5c4.574 0 8.961 1.816 12.195 5.051a17.27 17.27 0 0 1 5.055 12.203v260.238a17.27 17.27 0 0 1-5.055 12.203 17.25 17.25 0 0 1-12.195 5.055H48.75a17.25 17.25 0 0 1-12.195-5.055 17.27 17.27 0 0 1-5.055-12.203V51.426a17.27 17.27 0 0 1 5.055-12.203c3.234-3.234 7.621-5.051 12.195-5.051" stroke="#202124"/></g></g><g fill="#4880ff"><use xlink:href="#I"/><path d="M178.55 269.765c-13.117 0-23.906-1.684-32.375-5.047-4.18-1.5-6.875-3.703-8.094-6.609-1.219-2.898-1.367-5.824-.437-8.781.938-2.961 2.594-5.227 4.969-6.797 2.375-1.562 5.188-1.766 8.438-.609 5.102 2.094 9.711 3.457 13.828 4.094 4.125.633 7.695.953 10.719.953 7.07 0 12.375-1.48 15.906-4.437 3.539-2.961 5.313-7.566 5.313-13.828v-8.016c-2.437 4.18-6.094 7.484-10.969 9.922-4.867 2.438-10.086 3.656-15.656 3.656-7.656 0-14.328-1.766-20.016-5.297-5.68-3.539-10.117-8.5-13.312-14.875-3.187-6.383-4.781-13.875-4.781-22.469 0-8.582 1.594-16.062 4.781-22.437 3.195-6.383 7.633-11.344 13.313-14.875 5.688-3.539 12.359-5.312 20.016-5.312 5.688 0 10.938 1.188 15.75 3.563s8.32 5.594 10.531 9.656c1.039-8.582 6.145-12.875 15.313-12.875 10.094 0 15.141 5.164 15.141 15.484v60.219c0 14.969-4.18 26.16-12.531 33.578-8.355 7.426-20.305 11.141-35.844 11.141zm1.219-58.297c5.102 0 9.16-1.738 12.172-5.219 3.02-3.477 4.531-8.352 4.531-14.625 0-6.258-1.512-11.129-4.531-14.609-3.012-3.477-7.07-5.219-12.172-5.219-4.992 0-8.996 1.742-12.016 5.219-3.012 3.48-4.516 8.352-4.516 14.609 0 6.273 1.504 11.148 4.516 14.625 3.02 3.48 7.023 5.219 12.016 5.219zm0 0"/><use xlink:href="#I" x="157.83"/></g></svg>