<svg width="510" height="518" viewBox="0 0 510 518" fill="none" xmlns="http://www.w3.org/2000/svg">
<path d="M254 96.8593H254.476L254.952 96.8334C302.255 94.2574 362.4 106.442 410.192 138.187C457.223 169.426 492.5 219.589 492.5 295.359C492.5 352.691 472.539 403.366 434.039 439.768C395.514 476.194 336.782 499.859 256.5 499.859C174.368 499.859 114.894 476.177 76.0983 439.781C37.3495 403.43 17.5 352.796 17.5 295.359C17.5 232.947 43.2245 183.928 84.9853 150.154C127.099 116.094 186.469 96.8593 254 96.8593Z" stroke="#202124" stroke-width="35"/>
<path d="M360.5 183.859L357.043 180.246C356.949 180.336 356.859 180.43 356.772 180.527L360.5 183.859ZM360.5 183.859C357.043 180.246 357.044 180.246 357.045 180.245L357.047 180.243L357.051 180.239L357.062 180.229L357.089 180.203C357.11 180.183 357.137 180.158 357.169 180.129C357.233 180.07 357.318 179.991 357.425 179.896C357.637 179.707 357.934 179.45 358.304 179.147C359.038 178.546 360.087 177.747 361.361 176.937C363.762 175.412 367.529 173.487 371.784 173.363C375.766 173.125 379.304 173.438 383.014 175.035C386.546 176.556 389.872 179.093 393.742 182.551C403.515 190.473 409.198 196.122 419.323 208.137C419.404 208.232 419.48 208.33 419.553 208.431C429.564 222.29 433.231 230.457 438.219 244.707C443.134 258.746 445.069 264.773 446.474 278.344C447.474 288.015 448.075 297.038 446.389 304.907C445.514 308.991 444.129 311.938 442.5 314.109C440.861 316.294 439.166 317.425 438.291 318.008L438.274 318.019C435.759 319.696 433.286 320.355 428.498 320.834C425.957 321.088 420.683 321.288 415.626 319.399C413.031 318.43 410.348 316.857 408.176 314.329C405.975 311.766 404.518 308.476 404.036 304.455C403.262 298.011 403.155 294.628 403.103 291.819C403.1 291.627 403.097 291.44 403.093 291.255C403.052 288.889 403.02 287.023 402.546 283.532L402.546 283.531L402.464 282.934L402.464 282.934C401.068 272.642 400.292 266.983 396.812 257.597C393.075 247.517 390.494 242.155 384.063 233.941C381.714 230.941 377.162 227.02 372.847 223.648C370.755 222.014 368.826 220.59 367.42 219.575C366.718 219.068 366.15 218.666 365.759 218.391C365.564 218.254 365.413 218.149 365.313 218.08L365.232 218.023C365.207 218.008 365.179 217.989 365.147 217.968C365.043 217.901 364.9 217.807 364.724 217.687C364.37 217.448 363.878 217.106 363.289 216.671C362.115 215.805 360.524 214.55 358.851 212.987C355.664 210.007 351.507 205.29 350.135 199.514C348.895 194.29 351.101 189.222 352.802 186.19C353.727 184.541 354.697 183.154 355.431 182.183C355.802 181.693 356.119 181.298 356.352 181.018C356.469 180.877 356.565 180.765 356.636 180.682C356.672 180.641 356.701 180.607 356.724 180.581L356.753 180.548L356.764 180.536L356.768 180.531L356.77 180.529C356.771 180.528 356.772 180.527 360.5 183.859Z" fill="#202124" stroke="#202124" stroke-width="10" stroke-linejoin="round"/>
<path d="M239 72C239 72 241.666 60.1927 243.609 54.5C245.191 49.8655 248.609 43 248.609 43C248.609 43 253.442 32.5425 257.609 26.5C260.448 22.3829 262.399 20.335 265.609 16.5C268.097 13.5279 269.193 11.5532 272.109 9C275.41 6.10939 277.322 3.93421 281.609 3C284.28 2.41799 285.947 2.37883 288.609 3C292.723 3.95986 295.227 5.51121 297.609 9C299.35 11.5499 299.992 13.4546 300.5 16.5C301 19.5 300.623 20.643 300.109 23.5C299.595 26.357 299.03 27.5333 297.5 30C296.261 31.9981 295.071 33.7505 293.5 35.5C291.602 37.6141 290.431 39.1347 288.721 41.3547L288.609 41.5C285.09 46.0681 284.136 49.317 281.609 54.5C278.811 60.2386 275.109 69.5 275.109 69.5C275.109 69.5 290.183 63.25 300.109 60C304.57 58.5392 307.034 57.5518 311.609 56.5C316.803 55.3059 319.986 53.0318 325.109 54.5C331.349 56.2881 335.163 60.1724 336.609 66.5C338.137 73.1841 336.109 79 330.609 83C326.495 85.9919 293.788 97.9351 281.957 101.045C288.544 105.318 300.244 125.652 301 126.5C301.891 127.5 310.5 143 310.5 143C310.5 143 314.5 155 306.5 160.5C298.5 166 290.609 164.5 286.109 162.5C281.609 160.5 261 128.5 251.5 118.5C251.5 118.5 231.609 155.5 221.109 161.5C215.137 164.913 209.52 164.747 204.109 160.5C198.571 156.154 196.609 150.379 198.109 143.5C201.532 127.806 223.181 106.917 217.5 104C211.819 101.083 189.5 88.5 181.5 83C173.5 77.5 173 71 173.5 67.5C174 64 174.109 60 180.609 56.5C187.109 53 199.609 57.5 199.609 57.5L239 72Z" fill="#202124"/>
<path d="M239 72C239 72 241.666 60.1927 243.609 54.5C245.191 49.8655 248.609 43 248.609 43C248.609 43 253.442 32.5425 257.609 26.5C260.448 22.3829 262.399 20.335 265.609 16.5C268.097 13.5279 269.193 11.5532 272.109 9C275.41 6.10939 277.322 3.93421 281.609 3C284.28 2.41799 285.947 2.37883 288.609 3C292.723 3.95986 295.227 5.51121 297.609 9C299.35 11.5499 299.992 13.4546 300.5 16.5C301 19.5 300.623 20.643 300.109 23.5C299.595 26.357 299.03 27.5333 297.5 30C296.261 31.9981 295.071 33.7505 293.5 35.5C291.561 37.6599 290.38 39.2003 288.609 41.5C285.09 46.0681 284.136 49.317 281.609 54.5C278.811 60.2386 275.109 69.5 275.109 69.5C275.109 69.5 290.183 63.25 300.109 60C304.57 58.5392 307.034 57.5518 311.609 56.5C316.803 55.3059 319.986 53.0318 325.109 54.5C331.349 56.2881 335.163 60.1724 336.609 66.5C338.137 73.1841 336.109 79 330.609 83C325.109 87 268.5 107 279 100.5C284 97.4048 300.109 125.5 301 126.5C301.891 127.5 310.5 143 310.5 143C310.5 143 314.5 155 306.5 160.5C298.5 166 290.609 164.5 286.109 162.5C281.609 160.5 261 128.5 251.5 118.5C251.5 118.5 231.609 155.5 221.109 161.5C215.137 164.913 209.52 164.747 204.109 160.5C198.571 156.154 196.609 150.379 198.109 143.5C201.532 127.806 223.181 106.917 217.5 104C211.819 101.083 189.5 88.5 181.5 83C173.5 77.5 173 71 173.5 67.5C174 64 174.109 60 180.609 56.5C187.109 53 199.609 57.5 199.609 57.5L239 72Z" stroke="#202124" stroke-width="5" stroke-linejoin="round"/>
</svg>
